<?xml version="1.0" standalone="yes"?>
<svg xmlns="http://www.w3.org/2000/svg" version="1.1" width="256" height="256">
  <rect x="0" y="0" width="256" height="256" style="fill:#ffffff;shape-rendering:crispEdges;"/>
  <path x="0" y="0" style="fill:#000000;shape-rendering:crispEdges;" d="M31.03,31.03 V38.79 H38.79 V31.03 H31.03 Z M38.79,31.03 V38.79 H46.55 V31.03 H38.79 Z M46.55,31.03 V38.79 H54.30 V31.03 H46.55 Z M54.30,31.03 V38.79 H62.06 V31.03 H54.30 Z M62.06,31.03 V38.79 H69.82 V31.03 H62.06 Z M69.82,31.03 V38.79 H77.58 V31.03 H69.82 Z M77.58,31.03 V38.79 H85.33 V31.03 H77.58 Z M93.09,31.03 V38.79 H100.85 V31.03 H93.09 Z M100.85,31.03 V38.79 H108.61 V31.03 H100.85 Z M124.12,31.03 V38.79 H131.88 V31.03 H124.12 Z M147.39,31.03 V38.79 H155.15 V31.03 H147.39 Z M170.67,31.03 V38.79 H178.42 V31.03 H170.67 Z M178.42,31.03 V38.79 H186.18 V31.03 H178.42 Z M186.18,31.03 V38.79 H193.94 V31.03 H186.18 Z M193.94,31.03 V38.79 H201.70 V31.03 H193.94 Z M201.70,31.03 V38.79 H209.45 V31.03 H201.70 Z M209.45,31.03 V38.79 H217.21 V31.03 H209.45 Z M217.21,31.03 V38.79 H224.97 V31.03 H217.21 Z M31.03,38.79 V46.55 H38.79 V38.79 H31.03 Z M77.58,38.79 V46.55 H85.33 V38.79 H77.58 Z M108.61,38.79 V46.55 H116.36 V38.79 H108.61 Z M139.64,38.79 V46.55 H147.39 V38.79 H139.64 Z M170.67,38.79 V46.55 H178.42 V38.79 H170.67 Z M217.21,38.79 V46.55 H224.97 V38.79 H217.21 Z M31.03,46.55 V54.30 H38.79 V46.55 H31.03 Z M46.55,46.55 V54.30 H54.30 V46.55 H46.55 Z M54.30,46.55 V54.30 H62.06 V46.55 H54.30 Z M62.06,46.55 V54.30 H69.82 V46.55 H62.06 Z M77.58,46.55 V54.30 H85.33 V46.55 H77.58 Z M93.09,46.55 V54.30 H100.85 V46.55 H93.09 Z M139.64,46.55 V54.30 H147.39 V46.55 H139.64 Z M155.15,46.55 V54.30 H162.91 V46.55 H155.15 Z M170.67,46.55 V54.30 H178.42 V46.55 H170.67 Z M186.18,46.55 V54.30 H193.94 V46.55 H186.18 Z M193.94,46.55 V54.30 H201.70 V46.55 H193.94 Z M201.70,46.55 V54.30 H209.45 V46.55 H201.70 Z M217.21,46.55 V54.30 H224.97 V46.55 H217.21 Z M31.03,54.30 V62.06 H38.79 V54.30 H31.03 Z M46.55,54.30 V62.06 H54.30 V54.30 H46.55 Z M54.30,54.30 V62.06 H62.06 V54.30 H54.30 Z M62.06,54.30 V62.06 H69.82 V54.30 H62.06 Z M77.58,54.30 V62.06 H85.33 V54.30 H77.58 Z M93.09,54.30 V62.06 H100.85 V54.30 H93.09 Z M139.64,54.30 V62.06 H147.39 V54.30 H139.64 Z M147.39,54.30 V62.06 H155.15 V54.30 H147.39 Z M155.15,54.30 V62.06 H162.91 V54.30 H155.15 Z M170.67,54.30 V62.06 H178.42 V54.30 H170.67 Z M186.18,54.30 V62.06 H193.94 V54.30 H186.18 Z M193.94,54.30 V62.06 H201.70 V54.30 H193.94 Z M201.70,54.30 V62.06 H209.45 V54.30 H201.70 Z M217.21,54.30 V62.06 H224.97 V54.30 H217.21 Z M31.03,62.06 V69.82 H38.79 V62.06 H31.03 Z M46.55,62.06 V69.82 H54.30 V62.06 H46.55 Z M54.30,62.06 V69.82 H62.06 V62.06 H54.30 Z M62.06,62.06 V69.82 H69.82 V62.06 H62.06 Z M77.58,62.06 V69.82 H85.33 V62.06 H77.58 Z M100.85,62.06 V69.82 H108.61 V62.06 H100.85 Z M131.88,62.06 V69.82 H139.64 V62.06 H131.88 Z M170.67,62.06 V69.82 H178.42 V62.06 H170.67 Z M186.18,62.06 V69.82 H193.94 V62.06 H186.18 Z M193.94,62.06 V69.82 H201.70 V62.06 H193.94 Z M201.70,62.06 V69.82 H209.45 V62.06 H201.70 Z M217.21,62.06 V69.82 H224.97 V62.06 H217.21 Z M31.03,69.82 V77.58 H38.79 V69.82 H31.03 Z M77.58,69.82 V77.58 H85.33 V69.82 H77.58 Z M93.09,69.82 V77.58 H100.85 V69.82 H93.09 Z M108.61,69.82 V77.58 H116.36 V69.82 H108.61 Z M124.12,69.82 V77.58 H131.88 V69.82 H124.12 Z M139.64,69.82 V77.58 H147.39 V69.82 H139.64 Z M155.15,69.82 V77.58 H162.91 V69.82 H155.15 Z M170.67,69.82 V77.58 H178.42 V69.82 H170.67 Z M217.21,69.82 V77.58 H224.97 V69.82 H217.21 Z M31.03,77.58 V85.33 H38.79 V77.58 H31.03 Z M38.79,77.58 V85.33 H46.55 V77.58 H38.79 Z M46.55,77.58 V85.33 H54.30 V77.58 H46.55 Z M54.30,77.58 V85.33 H62.06 V77.58 H54.30 Z M62.06,77.58 V85.33 H69.82 V77.58 H62.06 Z M69.82,77.58 V85.33 H77.58 V77.58 H69.82 Z M77.58,77.58 V85.33 H85.33 V77.58 H77.58 Z M93.09,77.58 V85.33 H100.85 V77.58 H93.09 Z M108.61,77.58 V85.33 H116.36 V77.58 H108.61 Z M124.12,77.58 V85.33 H131.88 V77.58 H124.12 Z M139.64,77.58 V85.33 H147.39 V77.58 H139.64 Z M155.15,77.58 V85.33 H162.91 V77.58 H155.15 Z M170.67,77.58 V85.33 H178.42 V77.58 H170.67 Z M178.42,77.58 V85.33 H186.18 V77.58 H178.42 Z M186.18,77.58 V85.33 H193.94 V77.58 H186.18 Z M193.94,77.58 V85.33 H201.70 V77.58 H193.94 Z M201.70,77.58 V85.33 H209.45 V77.58 H201.70 Z M209.45,77.58 V85.33 H217.21 V77.58 H209.45 Z M217.21,77.58 V85.33 H224.97 V77.58 H217.21 Z M93.09,85.33 V93.09 H100.85 V85.33 H93.09 Z M124.12,85.33 V93.09 H131.88 V85.33 H124.12 Z M139.64,85.33 V93.09 H147.39 V85.33 H139.64 Z M147.39,85.33 V93.09 H155.15 V85.33 H147.39 Z M155.15,85.33 V93.09 H162.91 V85.33 H155.15 Z M31.03,93.09 V100.85 H38.79 V93.09 H31.03 Z M38.79,93.09 V100.85 H46.55 V93.09 H38.79 Z M54.30,93.09 V100.85 H62.06 V93.09 H54.30 Z M77.58,93.09 V100.85 H85.33 V93.09 H77.58 Z M85.33,93.09 V100.85 H93.09 V93.09 H85.33 Z M100.85,93.09 V100.85 H108.61 V93.09 H100.85 Z M124.12,93.09 V100.85 H131.88 V93.09 H124.12 Z M131.88,93.09 V100.85 H139.64 V93.09 H131.88 Z M155.15,93.09 V100.85 H162.91 V93.09 H155.15 Z M162.91,93.09 V100.85 H170.67 V93.09 H162.91 Z M170.67,93.09 V100.85 H178.42 V93.09 H170.67 Z M178.42,93.09 V100.85 H186.18 V93.09 H178.42 Z M193.94,93.09 V100.85 H201.70 V93.09 H193.94 Z M201.70,93.09 V100.85 H209.45 V93.09 H201.70 Z M217.21,93.09 V100.85 H224.97 V93.09 H217.21 Z M38.79,100.85 V108.61 H46.55 V100.85 H38.79 Z M46.55,100.85 V108.61 H54.30 V100.85 H46.55 Z M54.30,100.85 V108.61 H62.06 V100.85 H54.30 Z M62.06,100.85 V108.61 H69.82 V100.85 H62.06 Z M69.82,100.85 V108.61 H77.58 V100.85 H69.82 Z M93.09,100.85 V108.61 H100.85 V100.85 H93.09 Z M100.85,100.85 V108.61 H108.61 V100.85 H100.85 Z M108.61,100.85 V108.61 H116.36 V100.85 H108.61 Z M147.39,100.85 V108.61 H155.15 V100.85 H147.39 Z M170.67,100.85 V108.61 H178.42 V100.85 H170.67 Z M186.18,100.85 V108.61 H193.94 V100.85 H186.18 Z M193.94,100.85 V108.61 H201.70 V100.85 H193.94 Z M217.21,100.85 V108.61 H224.97 V100.85 H217.21 Z M31.03,108.61 V116.36 H38.79 V108.61 H31.03 Z M38.79,108.61 V116.36 H46.55 V108.61 H38.79 Z M46.55,108.61 V116.36 H54.30 V108.61 H46.55 Z M77.58,108.61 V116.36 H85.33 V108.61 H77.58 Z M85.33,108.61 V116.36 H93.09 V108.61 H85.33 Z M108.61,108.61 V116.36 H116.36 V108.61 H108.61 Z M124.12,108.61 V116.36 H131.88 V108.61 H124.12 Z M131.88,108.61 V116.36 H139.64 V108.61 H131.88 Z M147.39,108.61 V116.36 H155.15 V108.61 H147.39 Z M170.67,108.61 V116.36 H178.42 V108.61 H170.67 Z M178.42,108.61 V116.36 H186.18 V108.61 H178.42 Z M193.94,108.61 V116.36 H201.70 V108.61 H193.94 Z M31.03,116.36 V124.12 H38.79 V116.36 H31.03 Z M46.55,116.36 V124.12 H54.30 V116.36 H46.55 Z M54.30,116.36 V124.12 H62.06 V116.36 H54.30 Z M93.09,116.36 V124.12 H100.85 V116.36 H93.09 Z M116.36,116.36 V124.12 H124.12 V116.36 H116.36 Z M131.88,116.36 V124.12 H139.64 V116.36 H131.88 Z M155.15,116.36 V124.12 H162.91 V116.36 H155.15 Z M170.67,116.36 V124.12 H178.42 V116.36 H170.67 Z M186.18,116.36 V124.12 H193.94 V116.36 H186.18 Z M201.70,116.36 V124.12 H209.45 V116.36 H201.70 Z M38.79,124.12 V131.88 H46.55 V124.12 H38.79 Z M46.55,124.12 V131.88 H54.30 V124.12 H46.55 Z M77.58,124.12 V131.88 H85.33 V124.12 H77.58 Z M100.85,124.12 V131.88 H108.61 V124.12 H100.85 Z M139.64,124.12 V131.88 H147.39 V124.12 H139.64 Z M147.39,124.12 V131.88 H155.15 V124.12 H147.39 Z M162.91,124.12 V131.88 H170.67 V124.12 H162.91 Z M170.67,124.12 V131.88 H178.42 V124.12 H170.67 Z M178.42,124.12 V131.88 H186.18 V124.12 H178.42 Z M186.18,124.12 V131.88 H193.94 V124.12 H186.18 Z M193.94,124.12 V131.88 H201.70 V124.12 H193.94 Z M201.70,124.12 V131.88 H209.45 V124.12 H201.70 Z M217.21,124.12 V131.88 H224.97 V124.12 H217.21 Z M31.03,131.88 V139.64 H38.79 V131.88 H31.03 Z M38.79,131.88 V139.64 H46.55 V131.88 H38.79 Z M46.55,131.88 V139.64 H54.30 V131.88 H46.55 Z M54.30,131.88 V139.64 H62.06 V131.88 H54.30 Z M69.82,131.88 V139.64 H77.58 V131.88 H69.82 Z M116.36,131.88 V139.64 H124.12 V131.88 H116.36 Z M124.12,131.88 V139.64 H131.88 V131.88 H124.12 Z M155.15,131.88 V139.64 H162.91 V131.88 H155.15 Z M170.67,131.88 V139.64 H178.42 V131.88 H170.67 Z M186.18,131.88 V139.64 H193.94 V131.88 H186.18 Z M193.94,131.88 V139.64 H201.70 V131.88 H193.94 Z M201.70,131.88 V139.64 H209.45 V131.88 H201.70 Z M54.30,139.64 V147.39 H62.06 V139.64 H54.30 Z M62.06,139.64 V147.39 H69.82 V139.64 H62.06 Z M69.82,139.64 V147.39 H77.58 V139.64 H69.82 Z M77.58,139.64 V147.39 H85.33 V139.64 H77.58 Z M85.33,139.64 V147.39 H93.09 V139.64 H85.33 Z M93.09,139.64 V147.39 H100.85 V139.64 H93.09 Z M116.36,139.64 V147.39 H124.12 V139.64 H116.36 Z M124.12,139.64 V147.39 H131.88 V139.64 H124.12 Z M139.64,139.64 V147.39 H147.39 V139.64 H139.64 Z M155.15,139.64 V147.39 H162.91 V139.64 H155.15 Z M170.67,139.64 V147.39 H178.42 V139.64 H170.67 Z M217.21,139.64 V147.39 H224.97 V139.64 H217.21 Z M46.55,147.39 V155.15 H54.30 V147.39 H46.55 Z M54.30,147.39 V155.15 H62.06 V147.39 H54.30 Z M62.06,147.39 V155.15 H69.82 V147.39 H62.06 Z M124.12,147.39 V155.15 H131.88 V147.39 H124.12 Z M131.88,147.39 V155.15 H139.64 V147.39 H131.88 Z M147.39,147.39 V155.15 H155.15 V147.39 H147.39 Z M178.42,147.39 V155.15 H186.18 V147.39 H178.42 Z M201.70,147.39 V155.15 H209.45 V147.39 H201.70 Z M46.55,155.15 V162.91 H54.30 V155.15 H46.55 Z M54.30,155.15 V162.91 H62.06 V155.15 H54.30 Z M62.06,155.15 V162.91 H69.82 V155.15 H62.06 Z M77.58,155.15 V162.91 H85.33 V155.15 H77.58 Z M85.33,155.15 V162.91 H93.09 V155.15 H85.33 Z M93.09,155.15 V162.91 H100.85 V155.15 H93.09 Z M100.85,155.15 V162.91 H108.61 V155.15 H100.85 Z M124.12,155.15 V162.91 H131.88 V155.15 H124.12 Z M131.88,155.15 V162.91 H139.64 V155.15 H131.88 Z M147.39,155.15 V162.91 H155.15 V155.15 H147.39 Z M155.15,155.15 V162.91 H162.91 V155.15 H155.15 Z M162.91,155.15 V162.91 H170.67 V155.15 H162.91 Z M170.67,155.15 V162.91 H178.42 V155.15 H170.67 Z M178.42,155.15 V162.91 H186.18 V155.15 H178.42 Z M186.18,155.15 V162.91 H193.94 V155.15 H186.18 Z M201.70,155.15 V162.91 H209.45 V155.15 H201.70 Z M116.36,162.91 V170.67 H124.12 V162.91 H116.36 Z M124.12,162.91 V170.67 H131.88 V162.91 H124.12 Z M131.88,162.91 V170.67 H139.64 V162.91 H131.88 Z M155.15,162.91 V170.67 H162.91 V162.91 H155.15 Z M186.18,162.91 V170.67 H193.94 V162.91 H186.18 Z M193.94,162.91 V170.67 H201.70 V162.91 H193.94 Z M209.45,162.91 V170.67 H217.21 V162.91 H209.45 Z M31.03,170.67 V178.42 H38.79 V170.67 H31.03 Z M38.79,170.67 V178.42 H46.55 V170.67 H38.79 Z M46.55,170.67 V178.42 H54.30 V170.67 H46.55 Z M54.30,170.67 V178.42 H62.06 V170.67 H54.30 Z M62.06,170.67 V178.42 H69.82 V170.67 H62.06 Z M69.82,170.67 V178.42 H77.58 V170.67 H69.82 Z M77.58,170.67 V178.42 H85.33 V170.67 H77.58 Z M93.09,170.67 V178.42 H100.85 V170.67 H93.09 Z M116.36,170.67 V178.42 H124.12 V170.67 H116.36 Z M124.12,170.67 V178.42 H131.88 V170.67 H124.12 Z M131.88,170.67 V178.42 H139.64 V170.67 H131.88 Z M139.64,170.67 V178.42 H147.39 V170.67 H139.64 Z M147.39,170.67 V178.42 H155.15 V170.67 H147.39 Z M155.15,170.67 V178.42 H162.91 V170.67 H155.15 Z M170.67,170.67 V178.42 H178.42 V170.67 H170.67 Z M186.18,170.67 V178.42 H193.94 V170.67 H186.18 Z M193.94,170.67 V178.42 H201.70 V170.67 H193.94 Z M201.70,170.67 V178.42 H209.45 V170.67 H201.70 Z M217.21,170.67 V178.42 H224.97 V170.67 H217.21 Z M31.03,178.42 V186.18 H38.79 V178.42 H31.03 Z M77.58,178.42 V186.18 H85.33 V178.42 H77.58 Z M100.85,178.42 V186.18 H108.61 V178.42 H100.85 Z M108.61,178.42 V186.18 H116.36 V178.42 H108.61 Z M116.36,178.42 V186.18 H124.12 V178.42 H116.36 Z M131.88,178.42 V186.18 H139.64 V178.42 H131.88 Z M139.64,178.42 V186.18 H147.39 V178.42 H139.64 Z M147.39,178.42 V186.18 H155.15 V178.42 H147.39 Z M155.15,178.42 V186.18 H162.91 V178.42 H155.15 Z M186.18,178.42 V186.18 H193.94 V178.42 H186.18 Z M201.70,178.42 V186.18 H209.45 V178.42 H201.70 Z M217.21,178.42 V186.18 H224.97 V178.42 H217.21 Z M31.03,186.18 V193.94 H38.79 V186.18 H31.03 Z M46.55,186.18 V193.94 H54.30 V186.18 H46.55 Z M54.30,186.18 V193.94 H62.06 V186.18 H54.30 Z M62.06,186.18 V193.94 H69.82 V186.18 H62.06 Z M77.58,186.18 V193.94 H85.33 V186.18 H77.58 Z M108.61,186.18 V193.94 H116.36 V186.18 H108.61 Z M116.36,186.18 V193.94 H124.12 V186.18 H116.36 Z M124.12,186.18 V193.94 H131.88 V186.18 H124.12 Z M131.88,186.18 V193.94 H139.64 V186.18 H131.88 Z M147.39,186.18 V193.94 H155.15 V186.18 H147.39 Z M155.15,186.18 V193.94 H162.91 V186.18 H155.15 Z M162.91,186.18 V193.94 H170.67 V186.18 H162.91 Z M170.67,186.18 V193.94 H178.42 V186.18 H170.67 Z M178.42,186.18 V193.94 H186.18 V186.18 H178.42 Z M186.18,186.18 V193.94 H193.94 V186.18 H186.18 Z M193.94,186.18 V193.94 H201.70 V186.18 H193.94 Z M201.70,186.18 V193.94 H209.45 V186.18 H201.70 Z M209.45,186.18 V193.94 H217.21 V186.18 H209.45 Z M217.21,186.18 V193.94 H224.97 V186.18 H217.21 Z M31.03,193.94 V201.70 H38.79 V193.94 H31.03 Z M46.55,193.94 V201.70 H54.30 V193.94 H46.55 Z M54.30,193.94 V201.70 H62.06 V193.94 H54.30 Z M62.06,193.94 V201.70 H69.82 V193.94 H62.06 Z M77.58,193.94 V201.70 H85.33 V193.94 H77.58 Z M93.09,193.94 V201.70 H100.85 V193.94 H93.09 Z M116.36,193.94 V201.70 H124.12 V193.94 H116.36 Z M147.39,193.94 V201.70 H155.15 V193.94 H147.39 Z M155.15,193.94 V201.70 H162.91 V193.94 H155.15 Z M170.67,193.94 V201.70 H178.42 V193.94 H170.67 Z M201.70,193.94 V201.70 H209.45 V193.94 H201.70 Z M217.21,193.94 V201.70 H224.97 V193.94 H217.21 Z M31.03,201.70 V209.45 H38.79 V201.70 H31.03 Z M46.55,201.70 V209.45 H54.30 V201.70 H46.55 Z M54.30,201.70 V209.45 H62.06 V201.70 H54.30 Z M62.06,201.70 V209.45 H69.82 V201.70 H62.06 Z M77.58,201.70 V209.45 H85.33 V201.70 H77.58 Z M116.36,201.70 V209.45 H124.12 V201.70 H116.36 Z M124.12,201.70 V209.45 H131.88 V201.70 H124.12 Z M139.64,201.70 V209.45 H147.39 V201.70 H139.64 Z M155.15,201.70 V209.45 H162.91 V201.70 H155.15 Z M170.67,201.70 V209.45 H178.42 V201.70 H170.67 Z M193.94,201.70 V209.45 H201.70 V201.70 H193.94 Z M201.70,201.70 V209.45 H209.45 V201.70 H201.70 Z M209.45,201.70 V209.45 H217.21 V201.70 H209.45 Z M217.21,201.70 V209.45 H224.97 V201.70 H217.21 Z M31.03,209.45 V217.21 H38.79 V209.45 H31.03 Z M77.58,209.45 V217.21 H85.33 V209.45 H77.58 Z M93.09,209.45 V217.21 H100.85 V209.45 H93.09 Z M100.85,209.45 V217.21 H108.61 V209.45 H100.85 Z M124.12,209.45 V217.21 H131.88 V209.45 H124.12 Z M139.64,209.45 V217.21 H147.39 V209.45 H139.64 Z M155.15,209.45 V217.21 H162.91 V209.45 H155.15 Z M170.67,209.45 V217.21 H178.42 V209.45 H170.67 Z M178.42,209.45 V217.21 H186.18 V209.45 H178.42 Z M186.18,209.45 V217.21 H193.94 V209.45 H186.18 Z M193.94,209.45 V217.21 H201.70 V209.45 H193.94 Z M201.70,209.45 V217.21 H209.45 V209.45 H201.70 Z M217.21,209.45 V217.21 H224.97 V209.45 H217.21 Z M31.03,217.21 V224.97 H38.79 V217.21 H31.03 Z M38.79,217.21 V224.97 H46.55 V217.21 H38.79 Z M46.55,217.21 V224.97 H54.30 V217.21 H46.55 Z M54.30,217.21 V224.97 H62.06 V217.21 H54.30 Z M62.06,217.21 V224.97 H69.82 V217.21 H62.06 Z M69.82,217.21 V224.97 H77.58 V217.21 H69.82 Z M77.58,217.21 V224.97 H85.33 V217.21 H77.58 Z M93.09,217.21 V224.97 H100.85 V217.21 H93.09 Z M124.12,217.21 V224.97 H131.88 V217.21 H124.12 Z M131.88,217.21 V224.97 H139.64 V217.21 H131.88 Z M147.39,217.21 V224.97 H155.15 V217.21 H147.39 Z M155.15,217.21 V224.97 H162.91 V217.21 H155.15 Z M162.91,217.21 V224.97 H170.67 V217.21 H162.91 Z M170.67,217.21 V224.97 H178.42 V217.21 H170.67 Z M178.42,217.21 V224.97 H186.18 V217.21 H178.42 Z M193.94,217.21 V224.97 H201.70 V217.21 H193.94 Z M217.21,217.21 V224.97 H224.97 V217.21 H217.21 Z " /></svg>